#Comment line ignore any data following # character 
#Hierarchical Translation and Rotation (.htr) file 
[Header]	
#Header keywords are followed by a single value 
FileType HTR		#Single word string
DataType HTRS		#Translation followed by rotation and scale data
FileVersion 1		#integer
NumSegments 84		#integer
NumFrames 2		#integer
DataFrameRate 30		#integer, data frame rate in this file
EulerRotationOrder ZYX
CalibrationUnits mm
RotationUnits Degrees
GlobalAxisofGravity Y
BoneLengthAxis Y
ScaleFactor 1.00
[SegmentNames&Hierarchy]
#CHILD	PARENT
MASTER GLOBAL
root MASTER
chest root
L_mid_tent01 root
R_mid_tent01 root
spine01 root
Bip01_Neck chest
L_humerus chest
R_humerus chest
weapon_bone chest
Bip01_Head Bip01_Neck
eye_left_bone Bip01_Head
eye_right_bone Bip01_Head
L_forearm L_humerus
L_front_hand L_forearm
L_weapon_bone L_forearm
L_front_hand01_01 L_front_hand
L_front_hand02_01 L_front_hand
L_front_hand03_01 L_front_hand
L_front_hand01_02 L_front_hand01_01
L_front_hand02_02 L_front_hand02_01
L_front_hand03_02 L_front_hand03_01
R_forearm R_humerus
R_front_hand R_forearm
R_weapon_bone R_forearm
R_front_hand01_01 R_front_hand
R_front_hand02_01 R_front_hand
R_front_hand03_01 R_front_hand
R_front_hand01_02 R_front_hand01_01
R_front_hand02_02 R_front_hand02_01
R_front_hand03_02 R_front_hand03_01
null_rope01_connect L_mid_tent01
Rope1_Seg01 null_rope01_connect
Rope1_Seg02 Rope1_Seg01
Rope1_Seg03 Rope1_Seg02
Rope1_Seg04 Rope1_Seg03
Rope1_Seg05 Rope1_Seg04
Rope1_Seg06 Rope1_Seg05
Rope1_Seg07 Rope1_Seg06
Rope1_Seg09 Rope1_Seg07
L_mid_hand01 Rope1_Seg09
L_mid_hand02 Rope1_Seg09
L_mid_hand03 Rope1_Seg09
null_rope02_connect R_mid_tent01
Rope2_Seg01 null_rope02_connect
Rope2_Seg02 Rope2_Seg01
Rope2_Seg03 Rope2_Seg02
Rope2_Seg04 Rope2_Seg03
Rope2_Seg05 Rope2_Seg04
Rope2_Seg06 Rope2_Seg05
Rope2_Seg07 Rope2_Seg06
Rope2_Seg09 Rope2_Seg07
R_mid_hand01 Rope2_Seg09
R_mid_hand02 Rope2_Seg09
R_mid_hand03 Rope2_Seg09
spine02 spine01
spine03 spine02
pelvis spine03
null_rope03_connect pelvis
null_rope04_connect pelvis
Rope3_Seg01 null_rope03_connect
Rope3_Seg02 Rope3_Seg01
Rope3_Seg03 Rope3_Seg02
Rope3_Seg04 Rope3_Seg03
Rope3_Seg05 Rope3_Seg04
Rope3_Seg06 Rope3_Seg05
Rope3_Seg07 Rope3_Seg06
Rope3_Seg08 Rope3_Seg07
Rope3_Seg09 Rope3_Seg08
R_rear_hand01 Rope3_Seg09
R_rear_hand02 Rope3_Seg09
R_rear_hand03 Rope3_Seg09
Rope4_Seg01 null_rope04_connect
Rope4_Seg02 Rope4_Seg01
Rope4_Seg03 Rope4_Seg02
Rope4_Seg04 Rope4_Seg03
Rope4_Seg05 Rope4_Seg04
Rope4_Seg06 Rope4_Seg05
Rope4_Seg07 Rope4_Seg06
Rope4_Seg08 Rope4_Seg07
Rope4_Seg09 Rope4_Seg08
L_rear_hand01 Rope4_Seg09
L_rear_hand02 Rope4_Seg09
L_rear_hand03 Rope4_Seg09
[BasePosition]
#SegmentName Tx, Ty, Tz, Rx, Ry, Rz, BoneLength
MASTER 0.000000 0.000000 0.000000 -90.000000 0.000000 0.000000 10.000000 
root 0.000000 0.000000 0.000000 0.000000 0.000000 0.000000 10.000000 
chest 0.000000 0.000000 0.000000 0.000000 0.000000 0.000000 10.000000 
L_mid_tent01 0.000000 0.000000 0.000000 0.000000 0.000000 0.000000 10.000000 
R_mid_tent01 0.000000 0.000000 0.000000 0.000000 0.000000 0.000000 10.000000 
spine01 0.000000 0.000000 0.000000 0.000000 0.000000 0.000000 10.000000 
Bip01_Neck 0.000000 0.000000 0.000000 0.000000 0.000000 0.000000 10.000000 
L_humerus 0.000000 0.000000 0.000000 0.000000 0.000000 0.000000 10.000000 
R_humerus 0.000000 0.000000 0.000000 0.000000 0.000000 0.000000 10.000000 
weapon_bone 0.000000 0.000000 0.000000 0.000000 0.000000 0.000000 10.000000 
Bip01_Head 0.000000 0.000000 0.000000 0.000000 0.000000 0.000000 10.000000 
eye_left_bone 0.000000 0.000000 0.000000 0.000000 0.000000 0.000000 10.000000 
eye_right_bone 0.000000 0.000000 0.000000 0.000000 0.000000 0.000000 10.000000 
L_forearm 0.000000 0.000000 0.000000 0.000000 0.000000 0.000000 10.000000 
L_front_hand 0.000000 0.000000 0.000000 0.000000 0.000000 0.000000 10.000000 
L_weapon_bone 0.000000 0.000000 0.000000 0.000000 0.000000 0.000000 10.000000 
L_front_hand01_01 0.000000 0.000000 0.000000 0.000000 0.000000 0.000000 10.000000 
L_front_hand02_01 0.000000 0.000000 0.000000 0.000000 0.000000 0.000000 10.000000 
L_front_hand03_01 0.000000 0.000000 0.000000 0.000000 0.000000 0.000000 10.000000 
L_front_hand01_02 0.000000 0.000000 0.000000 0.000000 0.000000 0.000000 10.000000 
L_front_hand02_02 0.000000 0.000000 0.000000 0.000000 0.000000 0.000000 10.000000 
L_front_hand03_02 0.000000 0.000000 0.000000 0.000000 0.000000 0.000000 10.000000 
R_forearm 0.000000 0.000000 0.000000 0.000000 0.000000 0.000000 10.000000 
R_front_hand 0.000000 0.000000 0.000000 0.000000 0.000000 0.000000 10.000000 
R_weapon_bone 0.000000 0.000000 0.000000 0.000000 0.000000 0.000000 10.000000 
R_front_hand01_01 0.000000 0.000000 0.000000 0.000000 0.000000 0.000000 10.000000 
R_front_hand02_01 0.000000 0.000000 0.000000 0.000000 0.000000 0.000000 10.000000 
R_front_hand03_01 0.000000 0.000000 0.000000 0.000000 0.000000 0.000000 10.000000 
R_front_hand01_02 0.000000 0.000000 0.000000 0.000000 0.000000 0.000000 10.000000 
R_front_hand02_02 0.000000 0.000000 0.000000 0.000000 0.000000 0.000000 10.000000 
R_front_hand03_02 0.000000 0.000000 0.000000 0.000000 0.000000 0.000000 10.000000 
null_rope01_connect 0.000000 0.000000 0.000000 0.000000 0.000000 0.000000 10.000000 
Rope1_Seg01 0.000000 0.000000 0.000000 0.000000 0.000000 0.000000 10.000000 
Rope1_Seg02 0.000000 0.000000 0.000000 0.000000 0.000000 0.000000 10.000000 
Rope1_Seg03 0.000000 0.000000 0.000000 0.000000 0.000000 0.000000 10.000000 
Rope1_Seg04 0.000000 0.000000 0.000000 0.000000 0.000000 0.000000 10.000000 
Rope1_Seg05 0.000000 0.000000 0.000000 0.000000 0.000000 0.000000 10.000000 
Rope1_Seg06 0.000000 0.000000 0.000000 0.000000 0.000000 0.000000 10.000000 
Rope1_Seg07 0.000000 0.000000 0.000000 0.000000 0.000000 0.000000 10.000000 
Rope1_Seg09 0.000000 0.000000 0.000000 0.000000 0.000000 0.000000 10.000000 
L_mid_hand01 0.000000 0.000000 0.000000 0.000000 0.000000 0.000000 10.000000 
L_mid_hand02 0.000000 0.000000 0.000000 0.000000 0.000000 0.000000 10.000000 
L_mid_hand03 0.000000 0.000000 0.000000 0.000000 0.000000 0.000000 10.000000 
null_rope02_connect 0.000000 0.000000 0.000000 0.000000 0.000000 0.000000 10.000000 
Rope2_Seg01 0.000000 0.000000 0.000000 0.000000 0.000000 0.000000 10.000000 
Rope2_Seg02 0.000000 0.000000 0.000000 0.000000 0.000000 0.000000 10.000000 
Rope2_Seg03 0.000000 0.000000 0.000000 0.000000 0.000000 0.000000 10.000000 
Rope2_Seg04 0.000000 0.000000 0.000000 0.000000 0.000000 0.000000 10.000000 
Rope2_Seg05 0.000000 0.000000 0.000000 0.000000 0.000000 0.000000 10.000000 
Rope2_Seg06 0.000000 0.000000 0.000000 0.000000 0.000000 0.000000 10.000000 
Rope2_Seg07 0.000000 0.000000 0.000000 0.000000 0.000000 0.000000 10.000000 
Rope2_Seg09 0.000000 0.000000 0.000000 0.000000 0.000000 0.000000 10.000000 
R_mid_hand01 0.000000 0.000000 0.000000 0.000000 0.000000 0.000000 10.000000 
R_mid_hand02 0.000000 0.000000 0.000000 0.000000 0.000000 0.000000 10.000000 
R_mid_hand03 0.000000 0.000000 0.000000 0.000000 0.000000 0.000000 10.000000 
spine02 0.000000 0.000000 0.000000 0.000000 0.000000 0.000000 10.000000 
spine03 0.000000 0.000000 0.000000 0.000000 0.000000 0.000000 10.000000 
pelvis 0.000000 0.000000 0.000000 0.000000 0.000000 0.000000 10.000000 
null_rope03_connect 0.000000 0.000000 0.000000 0.000000 0.000000 0.000000 10.000000 
null_rope04_connect 0.000000 0.000000 0.000000 0.000000 0.000000 0.000000 10.000000 
Rope3_Seg01 0.000000 0.000000 0.000000 0.000000 0.000000 0.000000 10.000000 
Rope3_Seg02 0.000000 0.000000 0.000000 0.000000 0.000000 0.000000 10.000000 
Rope3_Seg03 0.000000 0.000000 0.000000 0.000000 0.000000 0.000000 10.000000 
Rope3_Seg04 0.000000 0.000000 0.000000 0.000000 0.000000 0.000000 10.000000 
Rope3_Seg05 0.000000 0.000000 0.000000 0.000000 0.000000 0.000000 10.000000 
Rope3_Seg06 0.000000 0.000000 0.000000 0.000000 0.000000 0.000000 10.000000 
Rope3_Seg07 0.000000 0.000000 0.000000 0.000000 0.000000 0.000000 10.000000 
Rope3_Seg08 0.000000 0.000000 0.000000 0.000000 0.000000 0.000000 10.000000 
Rope3_Seg09 0.000000 0.000000 0.000000 0.000000 0.000000 0.000000 10.000000 
R_rear_hand01 0.000000 0.000000 0.000000 0.000000 0.000000 0.000000 10.000000 
R_rear_hand02 0.000000 0.000000 0.000000 0.000000 0.000000 0.000000 10.000000 
R_rear_hand03 0.000000 0.000000 0.000000 0.000000 0.000000 0.000000 10.000000 
Rope4_Seg01 0.000000 0.000000 0.000000 0.000000 0.000000 0.000000 10.000000 
Rope4_Seg02 0.000000 0.000000 0.000000 0.000000 0.000000 0.000000 10.000000 
Rope4_Seg03 0.000000 0.000000 0.000000 0.000000 0.000000 0.000000 10.000000 
Rope4_Seg04 0.000000 0.000000 0.000000 0.000000 0.000000 0.000000 10.000000 
Rope4_Seg05 0.000000 0.000000 0.000000 0.000000 0.000000 0.000000 10.000000 
Rope4_Seg06 0.000000 0.000000 0.000000 0.000000 0.000000 0.000000 10.000000 
Rope4_Seg07 0.000000 0.000000 0.000000 0.000000 0.000000 0.000000 10.000000 
Rope4_Seg08 0.000000 0.000000 0.000000 0.000000 0.000000 0.000000 10.000000 
Rope4_Seg09 0.000000 0.000000 0.000000 0.000000 0.000000 0.000000 10.000000 
L_rear_hand01 0.000000 0.000000 0.000000 0.000000 0.000000 0.000000 10.000000 
L_rear_hand02 0.000000 0.000000 0.000000 0.000000 0.000000 0.000000 10.000000 
L_rear_hand03 0.000000 0.000000 0.000000 0.000000 0.000000 0.000000 10.000000 
#Beginning of Data. Separated by tabs
#Fr	Tx	Ty	Tz	Rx	Ry	Rz	SF
[MASTER]
13 0.000000 0.000000 0.000000 0.001660 0.001660 0.001660 0.000000
14 0.000000 0.000000 0.000000 0.001660 0.001660 0.001660 0.000000
[root]
13 -16.502245 -199.343781 1093.534668 -85.747322 -61.785324 -93.080688 1111.678223
14 -16.502245 -199.343781 1093.534668 -85.747337 -61.785347 -93.080734 1111.678223
[chest]
13 -84.512650 -34.090519 0.000000 2.363827 -1.463068 -122.070152 91.129311
14 -84.512650 -34.090519 0.000000 2.358860 -1.451258 -121.906815 91.129311
[L_mid_tent01]
13 27.299500 22.177483 -249.917984 -16.723528 1.911395 130.579849 252.380859
14 27.299500 22.177483 -249.917984 -16.722563 1.958317 130.913269 252.380859
[R_mid_tent01]
13 23.228794 24.509907 226.238495 -175.132935 2.143107 119.382027 228.744751
14 23.228794 24.509907 226.238495 -175.132706 2.149303 119.697548 228.744751
[spine01]
13 -0.361383 -0.195265 0.000000 -0.000001 -0.000007 22.052340 0.410763
14 -0.361383 -0.195265 0.000000 -0.000001 -0.000007 22.052340 0.410763
[Bip01_Neck]
13 165.484543 71.581718 0.000119 175.896118 1.177290 24.871183 180.302734
14 165.484543 71.581718 0.000119 175.896118 1.177290 24.871183 180.302734
[L_humerus]
13 -13.983130 -135.272980 -120.471481 -91.668335 0.804969 -167.458282 181.680161
14 -13.983130 -135.272980 -120.471481 -91.668335 0.804969 -167.458282 181.680161
[R_humerus]
13 -13.983309 -135.273102 125.287651 103.000740 1.729733 -169.272232 184.909012
14 -13.983309 -135.273102 125.287651 103.000740 1.729733 -169.272232 184.909012
[weapon_bone]
13 235.964890 -300.705902 0.000000 0.000000 -89.951546 -128.212341 382.234833
14 235.964890 -300.705902 0.000000 0.000000 -89.951546 -128.212341 382.234833
[Bip01_Head]
13 102.819817 23.735483 5.410404 3.150732 3.423701 -20.839092 105.662483
14 102.819817 23.735483 5.410404 3.150732 3.423702 -20.839094 105.662483
[eye_left_bone]
13 -24.626970 125.451866 -64.772606 0.000000 -90.000000 -99.840431 143.318359
14 -24.626970 125.451866 -64.772606 0.000000 -90.000000 -99.840431 143.318359
[eye_right_bone]
13 -24.626970 125.451866 64.327362 0.000000 -89.960434 80.159386 143.117676
14 -24.626970 125.451866 64.327362 0.000000 -89.960434 80.159386 143.117676
[L_forearm]
13 322.776093 0.000000 -0.000119 0.000017 0.002347 -89.149834 322.776093
14 322.776093 0.000000 -0.000119 0.000017 0.002347 -89.149834 322.776093
[L_front_hand]
13 241.149185 -0.042021 -3.300071 -177.732803 -0.044515 -80.264351 241.171753
14 241.149185 -0.042021 -3.300071 -177.732803 -0.044442 -80.268044 241.171753
[L_weapon_bone]
13 156.183838 0.000000 0.000000 0.000014 0.000007 0.000001 156.183838
14 156.183838 0.000000 0.000000 0.000014 0.000007 0.000001 156.183838
[L_front_hand01_01]
13 86.095154 20.947098 -0.655860 0.405585 -0.442306 -4.620490 88.609184
14 86.095154 20.947098 -0.655860 0.405585 -0.442306 -4.620490 88.609184
[L_front_hand02_01]
13 86.935165 -11.437475 24.513514 116.959450 3.630818 1.495453 91.046425
14 86.935165 -11.437475 24.513514 116.959465 3.630818 1.495453 91.046425
[L_front_hand03_01]
13 86.637497 -14.123976 -20.424902 -118.420097 -4.656303 -0.152527 90.126129
14 86.637497 -14.123976 -20.424902 -118.420097 -4.656304 -0.152527 90.126129
[L_front_hand01_02]
13 71.020905 -0.000179 0.000030 0.000004 -0.000005 -8.379269 71.020905
14 71.020905 -0.000179 0.000030 0.000004 -0.000005 -8.379269 71.020905
[L_front_hand02_02]
13 71.020927 -0.000119 0.000060 -0.000005 -0.000004 -8.379259 71.020927
14 71.020927 -0.000119 0.000060 -0.000005 -0.000004 -8.379259 71.020927
[L_front_hand03_02]
13 71.020905 -0.000060 0.000060 0.000015 -0.000040 -8.379267 71.020905
14 71.020905 -0.000060 0.000060 0.000015 -0.000040 -8.379267 71.020905
[R_forearm]
13 322.776428 -0.000060 0.000030 0.210712 -0.039957 -80.372673 322.776428
14 322.776428 -0.000060 0.000030 0.210702 -0.040013 -80.342468 322.776428
[R_front_hand]
13 238.847015 -0.006795 2.210259 -1.670863 -0.430243 -93.189285 238.857239
14 238.847015 -0.006795 2.210259 -1.670838 -0.430342 -93.196098 238.857239
[R_weapon_bone]
13 155.664093 0.002503 -0.000030 0.003487 0.001180 -90.988930 155.664078
14 155.664093 0.002503 -0.000030 0.003487 0.001180 -90.988930 155.664078
[R_front_hand01_01]
13 87.624611 14.231146 22.918642 -116.960213 3.496675 -1.324139 91.683487
14 87.624611 14.231146 22.918642 -116.960205 3.496675 -1.324138 91.683487
[R_front_hand02_01]
13 89.356956 14.367283 -19.491137 118.419647 -4.257089 0.609827 92.579636
14 89.356956 14.367283 -19.491137 118.419647 -4.257089 0.609827 92.579636
[R_front_hand03_01]
13 87.286232 -22.307278 -0.143439 -0.387970 -0.231462 4.232001 90.091743
14 87.286232 -22.307278 -0.143439 -0.387970 -0.231462 4.232001 90.091743
[R_front_hand01_02]
13 71.020905 0.000060 0.000119 -0.000005 -0.000020 8.379271 71.020905
14 71.020905 0.000060 0.000119 -0.000005 -0.000020 8.379271 71.020905
[R_front_hand02_02]
13 71.020844 -0.000030 -0.000119 0.000000 -0.000021 8.379271 71.020836
14 71.020844 -0.000030 -0.000119 0.000000 -0.000021 8.379271 71.020836
[R_front_hand03_02]
13 71.020905 0.000000 0.000030 -0.000001 -0.000020 8.379275 71.020905
14 71.020905 0.000000 0.000030 -0.000001 -0.000020 8.379275 71.020905
[null_rope01_connect]
13 328.732483 0.000000 -0.000238 110.570190 -73.383362 -89.280312 328.732483
14 328.732483 0.000000 -0.000238 110.384804 -73.373344 -89.436195 328.732483
[Rope1_Seg01]
13 0.000000 0.000000 0.000000 76.041008 16.920870 81.749695 0.000000
14 0.000000 0.000000 0.000000 76.110420 16.160765 81.501495 0.000000
[Rope1_Seg02]
13 139.999863 -0.000179 0.000000 62.211449 -10.651575 43.326344 139.999863
14 139.999863 -0.000179 0.000000 62.858196 -10.312722 42.772511 139.999863
[Rope1_Seg03]
13 139.999924 0.000060 -0.000060 59.969368 16.229099 20.126799 139.999924
14 139.999924 0.000060 -0.000060 60.629459 16.818214 20.565992 139.999924
[Rope1_Seg04]
13 139.999924 -0.000060 -0.000119 17.957916 44.756805 -7.280716 139.999924
14 139.999924 -0.000060 -0.000119 16.713390 44.338715 -8.164114 139.999924
[Rope1_Seg05]
13 139.999832 0.000119 -0.000060 -0.234673 17.604603 -9.936133 139.999832
14 139.999832 0.000119 -0.000060 -0.256885 17.309767 -9.789368 139.999832
[Rope1_Seg06]
13 139.999954 0.000119 -0.000060 -0.391003 7.361475 -4.251864 139.999954
14 139.999954 0.000119 -0.000060 -0.385016 7.213009 -4.166326 139.999954
[Rope1_Seg07]
13 139.999985 0.000060 0.000000 -0.103057 1.863738 -1.065143 139.999985
14 139.999985 0.000060 0.000000 -0.098438 1.791261 -1.023774 139.999985
[Rope1_Seg09]
13 121.602913 0.000119 -0.000089 -89.793175 -1.359789 0.847147 121.602913
14 121.602913 0.000119 -0.000089 -89.793175 -1.359789 0.847147 121.602913
[L_mid_hand01]
13 103.859421 1.038730 8.195221 104.352036 0.341479 -0.444583 104.187431
14 103.859421 1.038730 8.195221 104.352043 0.341479 -0.444583 104.187431
[L_mid_hand02]
13 105.572853 -4.139662 -10.864139 -135.608444 3.905687 -3.381056 106.211075
14 105.572853 -4.139662 -10.864139 -135.608444 3.905687 -3.381056 106.211075
[L_mid_hand03]
13 104.641464 17.579376 -3.913581 -18.761520 -0.324361 2.942913 106.179977
14 104.641464 17.579376 -3.913581 -18.761520 -0.324361 2.942913 106.179977
[null_rope02_connect]
13 328.732849 0.000179 -0.000119 121.514938 84.614166 -90.938187 328.732849
14 328.732849 0.000179 -0.000119 121.220016 84.628517 -90.915878 328.732849
[Rope2_Seg01]
13 0.000076 0.000110 0.000153 -5.795070 50.831917 106.770813 0.000203
14 0.000076 0.000110 0.000153 -5.731407 50.725628 106.853767 0.000203
[Rope2_Seg02]
13 139.999741 -0.000060 -0.000119 -17.927162 -57.748711 -41.088615 139.999756
14 139.999741 -0.000060 -0.000119 -17.962364 -58.185753 -42.037785 139.999756
[Rope2_Seg03]
13 140.000107 0.000030 0.000000 -23.843706 -12.564540 -26.248041 140.000107
14 140.000107 0.000030 0.000000 -23.425779 -12.070616 -25.850653 140.000107
[Rope2_Seg04]
13 139.999802 0.000000 -0.000060 -20.879738 -11.878562 -33.760029 139.999802
14 139.999802 0.000000 -0.000060 -20.914600 -11.893957 -34.048428 139.999802
[Rope2_Seg05]
13 139.999985 -0.000060 0.000119 -10.605760 2.062694 -30.589987 139.999985
14 139.999985 -0.000060 0.000119 -10.430302 2.181270 -30.305696 139.999985
[Rope2_Seg06]
13 139.999893 -0.000030 -0.000119 -1.778619 3.285935 -12.066076 139.999893
14 139.999893 -0.000030 -0.000119 -1.746213 3.265640 -11.970198 139.999893
[Rope2_Seg07]
13 139.999893 0.000060 -0.000060 -0.270901 1.373490 -4.566356 139.999893
14 139.999893 0.000060 -0.000060 -0.264305 1.352425 -4.498566 139.999893
[Rope2_Seg09]
13 121.338966 0.000089 -0.000060 33.793236 -1.359788 -0.847141 121.338966
14 121.338966 0.000089 -0.000060 33.793236 -1.359788 -0.847141 121.338966
[R_mid_hand01]
13 104.680779 11.144459 -10.335981 -47.384258 2.963522 5.452604 105.778534
14 104.680779 11.144459 -10.335981 -47.384266 2.963523 5.452605 105.778534
[R_mid_hand02]
13 104.070427 2.443552 8.231699 75.626297 -2.250001 1.111093 104.424065
14 104.070427 2.443552 8.231699 75.626305 -2.250002 1.111093 104.424065
[R_mid_hand03]
13 106.028137 -11.221827 -5.996406 -164.381927 2.495984 -6.140522 106.788818
14 106.028137 -11.221827 -5.996406 -164.381927 2.495984 -6.140522 106.788818
[spine02]
13 129.756927 0.001550 0.000119 -3.631045 -2.858200 48.942162 129.756927
14 129.756927 0.001550 0.000119 -3.639410 -2.851235 49.097221 129.756927
[spine03]
13 79.115631 0.000000 -0.000119 5.752282 8.659765 53.693249 79.115631
14 79.115631 0.000000 -0.000119 5.769028 8.654971 53.855724 79.115631
[pelvis]
13 169.435242 0.051022 0.000000 -7.811368 -2.958008 15.092304 169.435257
14 169.435242 0.051022 0.000000 -7.822432 -2.960123 15.114513 169.435257
[null_rope03_connect]
13 -1.257226 -2.466202 137.391083 146.413391 -84.049942 -134.125198 137.418976
14 -1.257226 -2.466202 137.391083 146.131592 -84.045235 -134.220154 137.418976
[null_rope04_connect]
13 -1.259640 -2.480268 -137.844437 146.413391 -84.049942 -134.125198 137.872513
14 -1.259640 -2.480268 -137.844437 146.131592 -84.045235 -134.220154 137.872513
[Rope3_Seg01]
13 0.000010 0.000038 -0.000114 -169.503830 74.125153 -105.552330 0.000121
14 0.000010 0.000038 -0.000114 -169.201035 73.912971 -105.330917 0.000121
[Rope3_Seg02]
13 139.999924 -0.000119 0.000060 -10.865676 -19.681934 11.608567 139.999924
14 139.999924 -0.000119 0.000060 -10.974233 -19.798136 11.725142 139.999924
[Rope3_Seg03]
13 139.999924 -0.000119 0.000119 -20.415333 -45.907734 23.259235 139.999924
14 139.999924 -0.000119 0.000119 -20.580267 -46.111679 23.448523 139.999924
[Rope3_Seg04]
13 139.999924 0.000119 0.000000 -0.476076 -23.187716 4.432221 139.999924
14 139.999924 0.000119 0.000000 -0.441290 -23.082767 4.393536 139.999924
[Rope3_Seg05]
13 139.999924 -0.000238 0.000060 8.951716 -61.875721 16.196220 139.999924
14 139.999924 -0.000238 0.000060 8.948714 -62.127148 16.388306 139.999924
[Rope3_Seg06]
13 139.999893 -0.000119 -0.000060 11.532660 -41.300930 26.802919 139.999893
14 139.999893 -0.000119 -0.000060 11.513672 -40.971004 26.686890 139.999893
[Rope3_Seg07]
13 139.999771 0.000060 -0.000119 2.919067 -5.110416 5.945624 139.999771
14 139.999771 0.000060 -0.000119 2.909663 -5.092037 5.926621 139.999771
[Rope3_Seg08]
13 139.999985 -0.000060 0.000000 1.468423 -1.930349 2.509884 139.999985
14 139.999985 -0.000060 0.000000 1.466876 -1.928073 2.506639 139.999985
[Rope3_Seg09]
13 90.185997 -0.000179 -0.000060 89.793228 -1.359877 -0.847183 90.185997
14 90.185997 -0.000179 -0.000060 89.793228 -1.359877 -0.847183 90.185997
[R_rear_hand01]
13 103.366196 -6.073594 -10.757982 -156.049316 6.070419 -2.795869 104.101845
14 103.366196 -6.073594 -10.757982 -156.049316 6.070419 -2.795869 104.101845
[R_rear_hand02]
13 100.509819 12.039542 -7.992327 -38.708435 1.958051 5.461186 101.543350
14 100.509819 12.039542 -7.992327 -38.708435 1.958051 5.461186 101.543350
[R_rear_hand03]
13 101.539970 5.215704 5.435467 84.307625 -2.361032 4.099037 101.819031
14 101.539970 5.215704 5.435467 84.307625 -2.361032 4.099037 101.819031
[Rope4_Seg01]
13 0.000010 0.000058 -0.000171 84.671989 77.532867 -76.550957 0.000181
14 0.000009 0.000056 -0.000172 84.505508 77.378036 -76.659363 0.000182
[Rope4_Seg02]
13 139.999985 0.000060 0.000119 5.023526 5.681514 -14.670502 139.999985
14 139.999985 0.000060 0.000119 5.062980 5.733644 -14.759291 139.999985
[Rope4_Seg03]
13 139.999924 0.000000 -0.000238 4.891847 11.520717 -48.437138 139.999924
14 139.999924 0.000000 -0.000238 4.864689 11.588945 -48.795132 139.999924
[Rope4_Seg04]
13 139.999985 0.000000 0.000119 -2.911429 3.069303 -36.482143 139.999985
14 139.999985 0.000000 0.000119 -2.924535 3.042095 -36.294228 139.999985
[Rope4_Seg05]
13 139.999802 -0.000060 -0.000119 -9.200644 6.229639 -31.407696 139.999802
14 139.999802 -0.000060 -0.000119 -9.297894 6.282988 -31.600830 139.999802
[Rope4_Seg06]
13 139.999924 0.000000 0.000060 -22.120089 14.750313 -48.233158 139.999924
14 139.999924 0.000000 0.000060 -22.083727 14.783358 -48.107071 139.999924
[Rope4_Seg07]
13 139.999802 0.000000 0.000000 -5.788172 9.991911 -14.905867 139.999802
14 139.999802 0.000000 0.000000 -5.717602 9.921111 -14.762127 139.999802
[Rope4_Seg08]
13 139.999924 0.000000 0.000119 -2.407617 2.555511 -3.173393 139.999924
14 139.999924 0.000000 0.000119 -2.398982 2.534015 -3.146745 139.999924
[Rope4_Seg09]
13 90.185791 0.000060 0.000060 -135.617828 2.228885 0.850567 90.185791
14 90.185791 0.000060 0.000060 -135.617828 2.228885 0.850567 90.185791
[L_rear_hand01]
13 101.696655 -8.392275 -7.654577 -38.746338 0.246096 177.290207 102.329041
14 101.696655 -8.392275 -7.654577 -38.746349 0.246096 177.290207 102.329041
[L_rear_hand02]
13 102.726799 -1.568258 5.773216 84.314880 -1.139137 176.250763 102.900848
14 102.726799 -1.568258 5.773216 84.314880 -1.139137 176.250763 102.900848
[L_rear_hand03]
13 104.552910 9.721220 -10.420293 -155.747955 -4.630845 179.564758 105.519653
14 104.552910 9.721220 -10.420293 -155.747955 -4.630845 179.564758 105.519653
